# xmcd
#
# Track frame offsets: 
#        150
#        19491
#        44854
#        59675
#        77118
#        98967
#        114751
#        137024
#        153798
#        171446
#        179598
#        201863
#        220962
#        238204
#        259739
#        277912
#        299510
#        322970
#        337959
#
# Disc length: 4747 seconds
#
# Revision: 0
# Processed by: cddbd v1.5.2PL0 Copyright (c) Steve Scherf et al.
# Submitted via: ExactAudioCopy v1.0b3
#
DISCID=26128913
DTITLE=Randy Rogers and Wade Bowen - Watch This
DYEAR=2016
DGENRE=Country
TTITLE0=Tonight's Not the Night
TTITLE1=Mood Ring
TTITLE2=Buy Myself a Chance
TTITLE3=Trouble
TTITLE4=Interstate
TTITLE5=Songs About Trucks
TTITLE6=In My Arms Instead
TTITLE7=You Had Me At My Best
TTITLE8=Too Late For Goodbye
TTITLE9=Whataburger
TTITLE10=West Texas Rain
TTITLE11=Fuzzy
TTITLE12=Things I Could Do
TTITLE13=Satellite
TTITLE14=One Step Closer
TTITLE15=Kiss Me In the Dark
TTITLE16=Who I Am
TTITLE17=She's Gonna Run
TTITLE18=Saturday Night
EXTD=
EXTT0=
EXTT1=
EXTT2=
EXTT3=
EXTT4=
EXTT5=
EXTT6=
EXTT7=
EXTT8=
EXTT9=
EXTT10=
EXTT11=
EXTT12=
EXTT13=
EXTT14=
EXTT15=
EXTT16=
EXTT17=
EXTT18=
PLAYORDER=
